<?xml version="1.0" encoding="UTF-8"?>
<!DOCTYPE svg PUBLIC "-//W3C//DTD SVG 1.1//EN" "http://www.w3.org/Graphics/SVG/1.1/DTD/svg11.dtd">
<svg xmlns="http://www.w3.org/2000/svg" version="1.1" width="330px" height="260px" style="shape-rendering:geometricPrecision; text-rendering:geometricPrecision; image-rendering:optimizeQuality; fill-rule:evenodd; clip-rule:evenodd" xmlns:xlink="http://www.w3.org/1999/xlink">
<g><path style="opacity:1" fill="#fefefe" d="M -0.5,-0.5 C 109.5,-0.5 219.5,-0.5 329.5,-0.5C 329.5,86.1667 329.5,172.833 329.5,259.5C 219.5,259.5 109.5,259.5 -0.5,259.5C -0.5,172.833 -0.5,86.1667 -0.5,-0.5 Z"/></g>
<g><path style="opacity:1" fill="#2091e0" d="M 280.5,11.5 C 282.857,11.3367 285.19,11.5034 287.5,12C 284.833,12.6667 284.833,13.3333 287.5,14C 285.934,14.6082 284.6,15.4415 283.5,16.5C 276.61,17.5115 269.944,19.3448 263.5,22C 257.336,25.3555 251.336,28.8555 245.5,32.5C 244.708,30.2794 244.374,28.2794 244.5,26.5C 250.828,21.6648 257.828,17.8315 265.5,15C 270.329,13.0425 275.329,11.8758 280.5,11.5 Z"/></g>
<g><path style="opacity:1" fill="#1b48b0" d="M 145.5,22.5 C 145.5,24.1667 145.5,25.8333 145.5,27.5C 130.53,26.4953 116.197,28.8286 102.5,34.5C 101.952,33.3115 101.619,32.1448 101.5,31C 103.742,29.9926 103.408,29.1593 100.5,28.5C 114.929,22.582 129.929,20.582 145.5,22.5 Z"/></g>
<g><path style="opacity:1" fill="#2ba6ed" d="M 280.5,11.5 C 285.65,10.3493 290.984,10.1826 296.5,11C 307.302,14.1095 310.468,20.9428 306,31.5C 304.264,37.3885 301.764,42.8885 298.5,48C 296.741,48.7975 295.074,48.6309 293.5,47.5C 299.274,39.3495 302.107,30.3495 302,20.5C 301.065,17.8981 299.232,16.3981 296.5,16C 292.141,15.4657 287.808,15.6324 283.5,16.5C 284.6,15.4415 285.934,14.6082 287.5,14C 284.833,13.3333 284.833,12.6667 287.5,12C 285.19,11.5034 282.857,11.3367 280.5,11.5 Z"/></g>
<g><path style="opacity:1" fill="#1f82d6" d="M 244.5,26.5 C 244.374,28.2794 244.708,30.2794 245.5,32.5C 236.265,39.3944 227.598,47.0611 219.5,55.5C 218.42,53.9553 218.42,52.4553 219.5,51C 219.361,49.699 218.695,48.8656 217.5,48.5C 225.334,39.6592 234.334,32.3258 244.5,26.5 Z"/></g>
<g><path style="opacity:1" fill="#2c39a5" d="M 100.5,28.5 C 103.408,29.1593 103.742,29.9926 101.5,31C 101.619,32.1448 101.952,33.3115 102.5,34.5C 89.8261,38.6695 78.1594,44.6695 67.5,52.5C 66.4019,51.603 66.4019,50.7697 67.5,50C 64.8333,49.3333 64.8333,48.6667 67.5,48C 66.552,47.5172 65.552,47.3505 64.5,47.5C 75.3007,39.0973 87.3007,32.764 100.5,28.5 Z"/></g>
<g><path style="opacity:1" fill="#186ac6" d="M 145.5,22.5 C 169.854,25.013 185.688,38.013 193,61.5C 193.995,66.4535 194.662,71.4535 195,76.5C 201.605,66.4007 209.105,57.0674 217.5,48.5C 218.695,48.8656 219.361,49.699 219.5,51C 218.42,52.4553 218.42,53.9553 219.5,55.5C 210.786,65.3832 202.619,75.7165 195,86.5C 192.63,113.61 184.63,138.944 171,162.5C 169.323,175.769 171.323,188.436 177,200.5C 183.454,209.476 192.287,213.81 203.5,213.5C 204.531,214.249 205.698,214.915 207,215.5C 207.034,217.18 207.201,218.68 207.5,220C 204.854,220.497 202.187,220.664 199.5,220.5C 188.888,219.048 180.388,214.048 174,205.5C 171.532,200.901 169.365,196.234 167.5,191.5C 169.026,190.508 169.693,189.008 169.5,187C 169.235,169.337 168.901,152.17 168.5,135.5C 171.944,118.276 178.444,102.276 188,87.5C 192.169,54.0888 178.003,34.0888 145.5,27.5C 145.5,25.8333 145.5,24.1667 145.5,22.5 Z"/></g>
<g><path style="opacity:1" fill="#3d2d9b" d="M 64.5,47.5 C 65.552,47.3505 66.552,47.5172 67.5,48C 64.8333,48.6667 64.8333,49.3333 67.5,50C 66.4019,50.7697 66.4019,51.603 67.5,52.5C 55.1395,60.2066 46.3062,70.8732 41,84.5C 38.0076,97.8336 42.1743,108.167 53.5,115.5C 51.1022,116.724 48.7689,116.558 46.5,115C 36.178,104.547 33.3446,92.3803 38,78.5C 43.4173,65.2492 52.2506,54.9158 64.5,47.5 Z"/></g>
<g><path style="opacity:1" fill="#3053b5" d="M 107.5,116.5 C 107.5,115.5 107.5,114.5 107.5,113.5C 106.5,113.5 105.5,113.5 104.5,113.5C 114.944,108.705 125.944,107.038 137.5,108.5C 127.384,110.53 117.384,113.196 107.5,116.5 Z"/></g>
<g><path style="opacity:1" fill="#dfeaf7" d="M 185.5,103.5 C 186.124,103.917 186.457,104.584 186.5,105.5C 183.43,119.309 178.93,132.643 173,145.5C 172.849,141.087 173.516,136.754 175,132.5C 178.015,122.619 181.515,112.952 185.5,103.5 Z"/></g>
<g><path style="opacity:1" fill="#313ba6" d="M 104.5,113.5 C 105.5,113.5 106.5,113.5 107.5,113.5C 107.5,114.5 107.5,115.5 107.5,116.5C 98.6578,120.505 90.1578,125.172 82,130.5C 75.5182,153.429 69.5182,176.429 64,199.5C 63.077,197.966 62.577,196.299 62.5,194.5C 66.1219,175.179 70.4552,156.012 75.5,137C 75.1501,135.743 74.4835,135.409 73.5,136C 70.3347,138.335 67.3347,140.835 64.5,143.5C 65.0102,140.612 64.3435,138.279 62.5,136.5C 67.3362,132.487 72.5029,128.82 78,125.5C 84.5215,102.047 91.3548,78.714 98.5,55.5C 99.325,54.6143 100.325,54.281 101.5,54.5C 96.5889,76.5014 90.9223,98.3347 84.5,120C 84.8333,120.5 85.1667,121 85.5,121.5C 91.3468,117.663 97.6801,114.996 104.5,113.5 Z"/></g>
<g><path style="opacity:1" fill="#155bbd" d="M 168.5,135.5 C 168.901,152.17 169.235,169.337 169.5,187C 169.693,189.008 169.026,190.508 167.5,191.5C 166.549,185.794 165.382,180.128 164,174.5C 151.666,192.001 136.833,207.001 119.5,219.5C 119.36,217.876 120.027,216.71 121.5,216C 120.5,215.667 119.5,215.333 118.5,215C 119.738,214.31 119.738,213.81 118.5,213.5C 135.545,200.95 149.712,185.616 161,167.5C 161.748,165.668 162.748,164.001 164,162.5C 163.984,153.087 165.484,144.087 168.5,135.5 Z"/></g>
<g><path style="opacity:1" fill="#24a1eb" d="M 287.5,177.5 C 284.903,177.279 284.903,176.779 287.5,176C 284.833,175.333 284.833,174.667 287.5,174C 284.833,173.333 284.833,172.667 287.5,172C 286.906,171.536 286.239,171.369 285.5,171.5C 292.885,162.945 299.718,153.945 306,144.5C 309.527,138.932 311.194,132.932 311,126.5C 310.5,126 310,125.5 309.5,125C 305.5,124.333 301.5,124.333 297.5,125C 280.104,129.095 263.104,133.595 246.5,138.5C 247.972,135.195 250.305,132.695 253.5,131C 270.934,122.724 289.268,118.724 308.5,119C 316.198,121.379 318.698,126.546 316,134.5C 310.261,151.391 300.761,165.724 287.5,177.5 Z"/></g>
<g><path style="opacity:1" fill="#3a2596" d="M 62.5,136.5 C 64.3435,138.279 65.0102,140.612 64.5,143.5C 48.6008,156.318 35.7675,171.651 26,189.5C 20.6605,199.191 18.6605,209.524 20,220.5C 23.3015,228.465 29.1348,233.632 37.5,236C 42.1016,237.122 46.7682,237.622 51.5,237.5C 53.8337,238.124 56.1671,238.957 58.5,240C 57.5939,241.699 57.2606,243.533 57.5,245.5C 22.977,246.472 9.81034,230.139 18,196.5C 25.7772,171.284 40.6106,151.284 62.5,136.5 Z"/></g>
<g><path style="opacity:1" fill="#1b90e0" d="M 285.5,171.5 C 286.239,171.369 286.906,171.536 287.5,172C 284.833,172.667 284.833,173.333 287.5,174C 284.833,174.667 284.833,175.333 287.5,176C 284.903,176.779 284.903,177.279 287.5,177.5C 275.495,190.845 261.495,201.512 245.5,209.5C 244.42,207.955 244.42,206.455 245.5,205C 245.164,203.97 244.497,203.47 243.5,203.5C 258.897,194.783 272.897,184.116 285.5,171.5 Z"/></g>
<g><path style="opacity:1" fill="#197ed4" d="M 243.5,203.5 C 244.497,203.47 245.164,203.97 245.5,205C 244.42,206.455 244.42,207.955 245.5,209.5C 231.299,218.086 215.965,221.753 199.5,220.5C 202.187,220.664 204.854,220.497 207.5,220C 207.201,218.68 207.034,217.18 207,215.5C 205.698,214.915 204.531,214.249 203.5,213.5C 210.98,213.861 218.314,213.028 225.5,211C 231.565,208.591 237.565,206.091 243.5,203.5 Z"/></g>
<g><path style="opacity:1" fill="#273aa6" d="M 118.5,213.5 C 119.738,213.81 119.738,214.31 118.5,215C 119.5,215.333 120.5,215.667 121.5,216C 120.027,216.71 119.36,217.876 119.5,219.5C 100.897,233.036 80.2306,241.702 57.5,245.5C 57.2606,243.533 57.5939,241.699 58.5,240C 56.1671,238.957 53.8337,238.124 51.5,237.5C 65.502,237.166 78.8353,234 91.5,228C 100.845,223.663 109.845,218.83 118.5,213.5 Z"/></g>
</svg>
